<svg width="370" height="150" viewBox="0 0 370 150" fill="none" xmlns="http://www.w3.org/2000/svg">
<g filter="url(#filter0_i_2_4)">
<rect width="370" height="150" rx="15" fill="#151515"/>
</g>
<rect x="2.5" y="2.5" width="365" height="145" rx="12.5" stroke="#080808" stroke-width="5"/>
<g filter="url(#filter1_di_2_4)">
<path d="M76.7195 73V31.784H83.6955V67.624H104.816V73H76.7195ZM124.08 73.64C118.789 73.64 114.693 72.3387 111.792 69.736C108.89 67.1333 107.44 63.144 107.44 57.768C107.44 52.904 108.677 49.064 111.152 46.248C113.626 43.432 117.381 42.024 122.416 42.024C127.024 42.024 130.48 43.24 132.784 45.672C135.13 48.0613 136.304 51.1547 136.304 54.952V60.584H114.095C114.437 63.528 115.504 65.5547 117.296 66.664C119.088 67.7733 121.818 68.328 125.488 68.328C127.024 68.328 128.602 68.1787 130.224 67.88C131.845 67.5813 133.253 67.1973 134.448 66.728V71.848C133.082 72.4453 131.504 72.8933 129.712 73.192C127.962 73.4907 126.085 73.64 124.08 73.64ZM114.095 56.04H130.16V53.928C130.16 51.8373 129.584 50.216 128.432 49.064C127.28 47.8693 125.338 47.272 122.608 47.272C119.365 47.272 117.125 47.976 115.888 49.384C114.693 50.792 114.095 53.0107 114.095 56.04ZM158.455 73.64C153.164 73.64 149.068 72.3387 146.167 69.736C143.265 67.1333 141.815 63.144 141.815 57.768C141.815 52.904 143.052 49.064 145.527 46.248C148.001 43.432 151.756 42.024 156.791 42.024C161.399 42.024 164.855 43.24 167.159 45.672C169.505 48.0613 170.679 51.1547 170.679 54.952V60.584H148.47C148.812 63.528 149.879 65.5547 151.671 66.664C153.463 67.7733 156.193 68.328 159.863 68.328C161.399 68.328 162.977 68.1787 164.599 67.88C166.22 67.5813 167.628 67.1973 168.823 66.728V71.848C167.457 72.4453 165.879 72.8933 164.087 73.192C162.337 73.4907 160.46 73.64 158.455 73.64ZM148.47 56.04H164.535V53.928C164.535 51.8373 163.959 50.216 162.807 49.064C161.655 47.8693 159.713 47.272 156.983 47.272C153.74 47.272 151.5 47.976 150.263 49.384C149.068 50.792 148.47 53.0107 148.47 56.04ZM174.94 73V69.352L191.516 48.36H175.708V42.664H200.092V46.952L183.836 67.624H200.54V73H174.94ZM221.517 73.64C216.226 73.64 212.13 72.3387 209.229 69.736C206.328 67.1333 204.877 63.144 204.877 57.768C204.877 52.904 206.114 49.064 208.589 46.248C211.064 43.432 214.818 42.024 219.853 42.024C224.461 42.024 227.917 43.24 230.221 45.672C232.568 48.0613 233.741 51.1547 233.741 54.952V60.584H211.533C211.874 63.528 212.941 65.5547 214.733 66.664C216.525 67.7733 219.256 68.328 222.925 68.328C224.461 68.328 226.04 68.1787 227.661 67.88C229.282 67.5813 230.69 67.1973 231.885 66.728V71.848C230.52 72.4453 228.941 72.8933 227.149 73.192C225.4 73.4907 223.522 73.64 221.517 73.64ZM211.533 56.04H227.597V53.928C227.597 51.8373 227.021 50.216 225.869 49.064C224.717 47.8693 222.776 47.272 220.045 47.272C216.802 47.272 214.562 47.976 213.325 49.384C212.13 50.792 211.533 53.0107 211.533 56.04ZM239.252 73V67.56H245.14V73H239.252ZM256.002 36.328V30.568H263.618V36.328H256.002ZM253.762 87.976C251.287 87.976 249.175 87.6347 247.425 86.952V81.896C248.151 82.1093 248.834 82.2587 249.474 82.344C250.156 82.472 250.775 82.536 251.33 82.536C253.335 82.536 254.722 82.1733 255.49 81.448C256.3 80.7227 256.706 79.528 256.706 77.864V47.976H252.098L252.738 42.664H263.618V78.504C263.618 81.3627 262.786 83.6453 261.122 85.352C259.5 87.1013 257.047 87.976 253.762 87.976ZM281.769 73.64C279.678 73.64 277.673 73.4907 275.753 73.192C273.876 72.8933 272.318 72.5307 271.081 72.104V66.216C272.532 66.7707 274.132 67.1973 275.881 67.496C277.63 67.7947 279.294 67.944 280.873 67.944C283.262 67.944 284.969 67.7307 285.993 67.304C287.017 66.8773 287.529 66.0453 287.529 64.808C287.529 63.912 287.209 63.208 286.569 62.696C285.972 62.184 285.054 61.7147 283.817 61.288C282.622 60.8613 281.086 60.3493 279.209 59.752C277.417 59.1547 275.86 58.5147 274.537 57.832C273.214 57.1067 272.19 56.1893 271.465 55.08C270.74 53.9707 270.377 52.52 270.377 50.728C270.377 47.9547 271.38 45.8213 273.385 44.328C275.39 42.792 278.612 42.024 283.049 42.024C284.798 42.024 286.462 42.152 288.041 42.408C289.62 42.664 290.964 42.984 292.073 43.368V49.192C290.878 48.7227 289.556 48.36 288.105 48.104C286.697 47.848 285.374 47.72 284.137 47.72C281.918 47.72 280.233 47.912 279.081 48.296C277.972 48.68 277.417 49.448 277.417 50.6C277.417 51.7947 277.993 52.648 279.145 53.16C280.34 53.6293 282.238 54.2907 284.841 55.144C287.23 55.8693 289.129 56.6373 290.537 57.448C291.945 58.2587 292.948 59.24 293.545 60.392C294.185 61.5013 294.505 62.952 294.505 64.744C294.505 67.7307 293.417 69.9707 291.241 71.464C289.065 72.9147 285.908 73.64 281.769 73.64Z" fill="#EFEFEF"/>
</g>
<g filter="url(#filter2_di_2_4)">
<path d="M64.4691 115V94.392H73.9411C76.2451 94.392 77.9198 94.9893 78.9651 96.184C80.0318 97.3573 80.5651 98.9573 80.5651 100.984C80.5651 102.435 80.2025 103.672 79.4771 104.696C78.7518 105.72 77.7065 106.435 76.3411 106.84C76.7251 107.117 77.0238 107.416 77.2371 107.736C77.4505 108.056 77.6638 108.483 77.8771 109.016L80.4691 115H76.8851L74.3571 109.24C74.1225 108.685 73.8345 108.291 73.4931 108.056C73.1731 107.821 72.6185 107.704 71.8291 107.704H67.9571V115H64.4691ZM67.9571 104.888H73.0131C74.2718 104.888 75.2638 104.579 75.9891 103.96C76.7145 103.341 77.0771 102.349 77.0771 100.984C77.0771 98.4027 75.8291 97.112 73.3331 97.112H67.9571V104.888ZM91.2116 115.32C88.5663 115.32 86.5183 114.669 85.0676 113.368C83.617 112.067 82.8916 110.072 82.8916 107.384C82.8916 104.952 83.5103 103.032 84.7476 101.624C85.985 100.216 87.8623 99.512 90.3796 99.512C92.6836 99.512 94.4116 100.12 95.5636 101.336C96.737 102.531 97.3236 104.077 97.3236 105.976V108.792H86.2196C86.3903 110.264 86.9236 111.277 87.8196 111.832C88.7156 112.387 90.081 112.664 91.9156 112.664C92.6836 112.664 93.473 112.589 94.2836 112.44C95.0943 112.291 95.7983 112.099 96.3956 111.864V114.424C95.713 114.723 94.9236 114.947 94.0276 115.096C93.153 115.245 92.2143 115.32 91.2116 115.32ZM86.2196 106.52H94.2516V105.464C94.2516 104.419 93.9636 103.608 93.3876 103.032C92.8116 102.435 91.841 102.136 90.4756 102.136C88.8543 102.136 87.7343 102.488 87.1156 103.192C86.5183 103.896 86.2196 105.005 86.2196 106.52ZM105.455 115.32C104.495 115.32 103.599 115.149 102.767 114.808C101.956 114.467 101.306 113.955 100.815 113.272C100.324 112.568 100.079 111.704 100.079 110.68C100.079 109.229 100.57 108.067 101.551 107.192C102.554 106.296 104.09 105.848 106.159 105.848H111.023V105.176C111.023 104.451 110.906 103.875 110.671 103.448C110.458 103.021 110.052 102.712 109.455 102.52C108.879 102.328 108.026 102.232 106.895 102.232C105.103 102.232 103.428 102.499 101.871 103.032V100.44C102.554 100.163 103.386 99.9387 104.367 99.768C105.348 99.5973 106.404 99.512 107.535 99.512C109.754 99.512 111.439 99.96 112.591 100.856C113.764 101.752 114.351 103.213 114.351 105.24V115H111.375L111.151 113.464C110.532 114.061 109.764 114.52 108.847 114.84C107.951 115.16 106.82 115.32 105.455 115.32ZM106.383 112.824C107.428 112.824 108.335 112.653 109.103 112.312C109.892 111.949 110.532 111.469 111.023 110.872V108.216H106.223C105.199 108.216 104.452 108.419 103.983 108.824C103.535 109.208 103.311 109.805 103.311 110.616C103.311 111.405 103.578 111.971 104.111 112.312C104.644 112.653 105.402 112.824 106.383 112.824ZM125.675 115.32C123.008 115.32 120.992 114.648 119.627 113.304C118.262 111.939 117.579 109.976 117.579 107.416C117.579 104.749 118.326 102.765 119.819 101.464C121.334 100.163 123.35 99.512 125.867 99.512C126.912 99.512 127.787 99.5867 128.491 99.736C129.216 99.8853 129.91 100.12 130.571 100.44V103.032C129.462 102.477 128.118 102.2 126.539 102.2C124.79 102.2 123.446 102.595 122.507 103.384C121.568 104.152 121.099 105.496 121.099 107.416C121.099 109.229 121.515 110.563 122.347 111.416C123.179 112.248 124.555 112.664 126.475 112.664C127.99 112.664 129.366 112.376 130.603 111.8V114.456C129.899 114.733 129.142 114.947 128.331 115.096C127.542 115.245 126.656 115.32 125.675 115.32ZM139.167 115.32C137.546 115.32 136.33 114.893 135.519 114.04C134.73 113.165 134.335 111.981 134.335 110.488V102.552H132.095V99.832H134.335V96.344L137.791 95.288V99.832H141.823L141.599 102.552H137.791V110.296C137.791 111.171 137.994 111.789 138.399 112.152C138.805 112.493 139.466 112.664 140.383 112.664C140.959 112.664 141.567 112.557 142.207 112.344V114.808C141.375 115.149 140.362 115.32 139.167 115.32ZM146.155 96.664V93.784H149.963V96.664H146.155ZM146.443 115V102.488H144.139L144.459 99.832H149.931V115H146.443ZM158.719 115L152.735 99.832H156.351L160.607 111.608L164.863 99.832H168.447L162.495 115H158.719ZM172.03 96.664V93.784H175.838V96.664H172.03ZM172.318 115V102.488H170.014L170.334 99.832H175.806V115H172.318ZM185.667 115.32C184.046 115.32 182.83 114.893 182.019 114.04C181.23 113.165 180.835 111.981 180.835 110.488V102.552H178.595V99.832H180.835V96.344L184.291 95.288V99.832H188.323L188.099 102.552H184.291V110.296C184.291 111.171 184.494 111.789 184.899 112.152C185.305 112.493 185.966 112.664 186.883 112.664C187.459 112.664 188.067 112.557 188.707 112.344V114.808C187.875 115.149 186.862 115.32 185.667 115.32ZM193.362 120.632C192.21 120.632 191.229 120.483 190.418 120.184V117.592C190.781 117.72 191.111 117.805 191.41 117.848C191.73 117.891 192.05 117.912 192.37 117.912C193.031 117.912 193.565 117.805 193.97 117.592C194.375 117.379 194.727 117.037 195.026 116.568C195.346 116.12 195.687 115.533 196.05 114.808L189.298 99.832H192.914L197.778 111.096L202.706 99.832H206.29L200.114 114.136C199.581 115.416 199.005 116.536 198.386 117.496C197.789 118.477 197.085 119.245 196.274 119.8C195.485 120.355 194.514 120.632 193.362 120.632ZM220.214 115.32C218.977 115.32 218.038 115.021 217.398 114.424C216.758 113.805 216.438 112.792 216.438 111.384V93.432H219.926V111.064C219.926 111.661 220.033 112.067 220.246 112.28C220.459 112.493 220.779 112.6 221.206 112.6C221.718 112.6 222.209 112.536 222.678 112.408V114.936C222.273 115.085 221.878 115.181 221.494 115.224C221.131 115.288 220.705 115.32 220.214 115.32ZM225.562 96.664V93.784H229.37V96.664H225.562ZM225.85 115V102.488H223.546L223.866 99.832H229.338V115H225.85ZM241.727 115.32C240.617 115.32 239.657 115.171 238.847 114.872C238.036 114.573 237.289 114.115 236.607 113.496L236.415 115H233.407V93.432H236.895V100.824C238.217 99.9493 239.807 99.512 241.663 99.512C243.817 99.512 245.513 100.131 246.751 101.368C248.009 102.584 248.639 104.557 248.639 107.288C248.639 110.04 248.02 112.067 246.783 113.368C245.545 114.669 243.86 115.32 241.727 115.32ZM240.799 112.696C242.377 112.696 243.487 112.248 244.127 111.352C244.788 110.456 245.119 109.101 245.119 107.288C245.119 105.411 244.767 104.088 244.063 103.32C243.359 102.552 242.249 102.168 240.735 102.168C239.156 102.168 237.876 102.605 236.895 103.48V111.096C237.897 112.163 239.199 112.696 240.799 112.696ZM252.032 115V99.832H255.232L255.424 101.592C256.149 101.123 257.013 100.696 258.016 100.312C259.018 99.928 260.01 99.6613 260.992 99.512V102.168C260.394 102.275 259.744 102.435 259.04 102.648C258.357 102.84 257.706 103.064 257.088 103.32C256.469 103.555 255.946 103.8 255.52 104.056V115H252.032ZM267.299 115.32C266.339 115.32 265.443 115.149 264.611 114.808C263.8 114.467 263.15 113.955 262.659 113.272C262.168 112.568 261.923 111.704 261.923 110.68C261.923 109.229 262.414 108.067 263.395 107.192C264.398 106.296 265.934 105.848 268.003 105.848H272.867V105.176C272.867 104.451 272.75 103.875 272.515 103.448C272.302 103.021 271.896 102.712 271.299 102.52C270.723 102.328 269.87 102.232 268.739 102.232C266.947 102.232 265.272 102.499 263.715 103.032V100.44C264.398 100.163 265.23 99.9387 266.211 99.768C267.192 99.5973 268.248 99.512 269.379 99.512C271.598 99.512 273.283 99.96 274.435 100.856C275.608 101.752 276.195 103.213 276.195 105.24V115H273.219L272.995 113.464C272.376 114.061 271.608 114.52 270.691 114.84C269.795 115.16 268.664 115.32 267.299 115.32ZM268.227 112.824C269.272 112.824 270.179 112.653 270.947 112.312C271.736 111.949 272.376 111.469 272.867 110.872V108.216H268.067C267.043 108.216 266.296 108.419 265.827 108.824C265.379 109.208 265.155 109.805 265.155 110.616C265.155 111.405 265.422 111.971 265.955 112.312C266.488 112.653 267.246 112.824 268.227 112.824ZM280.063 115V99.832H283.263L283.455 101.592C284.18 101.123 285.044 100.696 286.047 100.312C287.05 99.928 288.042 99.6613 289.023 99.512V102.168C288.426 102.275 287.775 102.435 287.071 102.648C286.388 102.84 285.738 103.064 285.119 103.32C284.5 103.555 283.978 103.8 283.551 104.056V115H280.063ZM293.862 120.632C292.71 120.632 291.729 120.483 290.918 120.184V117.592C291.281 117.72 291.611 117.805 291.91 117.848C292.23 117.891 292.55 117.912 292.87 117.912C293.531 117.912 294.065 117.805 294.47 117.592C294.875 117.379 295.227 117.037 295.526 116.568C295.846 116.12 296.187 115.533 296.55 114.808L289.798 99.832H293.414L298.278 111.096L303.206 99.832H306.79L300.614 114.136C300.081 115.416 299.505 116.536 298.886 117.496C298.289 118.477 297.585 119.245 296.774 119.8C295.985 120.355 295.014 120.632 293.862 120.632Z" fill="#B3B3B3"/>
</g>
<defs>
<filter id="filter0_i_2_4" x="0" y="0" width="370" height="150" filterUnits="userSpaceOnUse" color-interpolation-filters="sRGB">
<feFlood flood-opacity="0" result="BackgroundImageFix"/>
<feBlend mode="normal" in="SourceGraphic" in2="BackgroundImageFix" result="shape"/>
<feColorMatrix in="SourceAlpha" type="matrix" values="0 0 0 0 0 0 0 0 0 0 0 0 0 0 0 0 0 0 127 0" result="hardAlpha"/>
<feOffset/>
<feGaussianBlur stdDeviation="10"/>
<feComposite in2="hardAlpha" operator="arithmetic" k2="-1" k3="1"/>
<feColorMatrix type="matrix" values="0 0 0 0 1 0 0 0 0 1 0 0 0 0 1 0 0 0 0.25 0"/>
<feBlend mode="normal" in2="shape" result="effect1_innerShadow_2_4"/>
</filter>
<filter id="filter1_di_2_4" x="76.7195" y="30.568" width="221.786" height="61.408" filterUnits="userSpaceOnUse" color-interpolation-filters="sRGB">
<feFlood flood-opacity="0" result="BackgroundImageFix"/>
<feColorMatrix in="SourceAlpha" type="matrix" values="0 0 0 0 0 0 0 0 0 0 0 0 0 0 0 0 0 0 127 0" result="hardAlpha"/>
<feOffset dx="2" dy="2"/>
<feGaussianBlur stdDeviation="1"/>
<feComposite in2="hardAlpha" operator="out"/>
<feColorMatrix type="matrix" values="0 0 0 0 1 0 0 0 0 1 0 0 0 0 1 0 0 0 0.25 0"/>
<feBlend mode="normal" in2="BackgroundImageFix" result="effect1_dropShadow_2_4"/>
<feBlend mode="normal" in="SourceGraphic" in2="effect1_dropShadow_2_4" result="shape"/>
<feColorMatrix in="SourceAlpha" type="matrix" values="0 0 0 0 0 0 0 0 0 0 0 0 0 0 0 0 0 0 127 0" result="hardAlpha"/>
<feOffset dy="1"/>
<feGaussianBlur stdDeviation="0.5"/>
<feComposite in2="hardAlpha" operator="arithmetic" k2="-1" k3="1"/>
<feColorMatrix type="matrix" values="0 0 0 0 0 0 0 0 0 0 0 0 0 0 0 0 0 0 0.25 0"/>
<feBlend mode="normal" in2="shape" result="effect2_innerShadow_2_4"/>
</filter>
<filter id="filter2_di_2_4" x="64.4691" y="93.432" width="246.321" height="31.2" filterUnits="userSpaceOnUse" color-interpolation-filters="sRGB">
<feFlood flood-opacity="0" result="BackgroundImageFix"/>
<feColorMatrix in="SourceAlpha" type="matrix" values="0 0 0 0 0 0 0 0 0 0 0 0 0 0 0 0 0 0 127 0" result="hardAlpha"/>
<feOffset dx="2" dy="2"/>
<feGaussianBlur stdDeviation="1"/>
<feComposite in2="hardAlpha" operator="out"/>
<feColorMatrix type="matrix" values="0 0 0 0 1 0 0 0 0 1 0 0 0 0 1 0 0 0 0.25 0"/>
<feBlend mode="normal" in2="BackgroundImageFix" result="effect1_dropShadow_2_4"/>
<feBlend mode="normal" in="SourceGraphic" in2="effect1_dropShadow_2_4" result="shape"/>
<feColorMatrix in="SourceAlpha" type="matrix" values="0 0 0 0 0 0 0 0 0 0 0 0 0 0 0 0 0 0 127 0" result="hardAlpha"/>
<feOffset dy="1"/>
<feGaussianBlur stdDeviation="0.5"/>
<feComposite in2="hardAlpha" operator="arithmetic" k2="-1" k3="1"/>
<feColorMatrix type="matrix" values="0 0 0 0 0 0 0 0 0 0 0 0 0 0 0 0 0 0 0.25 0"/>
<feBlend mode="normal" in2="shape" result="effect2_innerShadow_2_4"/>
</filter>
</defs>
</svg>
